<mxfile host="app.diagrams.net" modified="2023-05-20T17:02:59.653Z" agent="Mozilla/5.0 (Windows NT 10.0; Win64; x64) AppleWebKit/537.36 (KHTML, like Gecko) Chrome/113.0.0.0 Safari/537.36" version="21.3.2" etag="UN6AZkOyZoeaq26kMc3g" type="github">
  <diagram name="Page-1" id="73X1oN9lQE4vRDPoBJuY">
    <mxGraphModel>
      <root>
        <mxCell id="0" />
        <mxCell id="1" parent="0" />
      </root>
    </mxGraphModel>
  </diagram>
</mxfile>
